<mxfile host="Electron" agent="Mozilla/5.0 (Windows NT 10.0; Win64; x64) AppleWebKit/537.36 (KHTML, like Gecko) draw.io/24.7.17 Chrome/128.0.6613.36 Electron/32.0.1 Safari/537.36" version="24.7.17">
  <diagram name="Page-1" id="q12t1yOGxX9QJpbsdFkz">
    <mxGraphModel dx="1098" dy="1246" grid="1" gridSize="10" guides="1" tooltips="1" connect="1" arrows="1" fold="1" page="1" pageScale="1" pageWidth="850" pageHeight="1100" math="0" shadow="0">
      <root>
        <mxCell id="0" />
        <mxCell id="1" parent="0" />
        <mxCell id="j9iMEMy-VblLFCHFO0Tf-1" value="Управление&lt;br&gt;образовательным процессом" style="rounded=0;whiteSpace=wrap;html=1;" vertex="1" parent="1">
          <mxGeometry x="305" y="250" width="240" height="170" as="geometry" />
        </mxCell>
        <mxCell id="j9iMEMy-VblLFCHFO0Tf-2" value="" style="endArrow=classic;html=1;rounded=0;entryX=0;entryY=0.25;entryDx=0;entryDy=0;" edge="1" parent="1">
          <mxGeometry width="50" height="50" relative="1" as="geometry">
            <mxPoint x="80" y="270.5" as="sourcePoint" />
            <mxPoint x="305" y="270" as="targetPoint" />
          </mxGeometry>
        </mxCell>
        <mxCell id="j9iMEMy-VblLFCHFO0Tf-3" value="Данные пользователей" style="edgeLabel;html=1;align=center;verticalAlign=middle;resizable=0;points=[];" vertex="1" connectable="0" parent="j9iMEMy-VblLFCHFO0Tf-2">
          <mxGeometry x="0.0311" y="-1" relative="1" as="geometry">
            <mxPoint y="-14" as="offset" />
          </mxGeometry>
        </mxCell>
        <mxCell id="j9iMEMy-VblLFCHFO0Tf-4" value="" style="endArrow=classic;html=1;rounded=0;entryX=0;entryY=0.5;entryDx=0;entryDy=0;" edge="1" parent="1">
          <mxGeometry width="50" height="50" relative="1" as="geometry">
            <mxPoint x="80" y="300" as="sourcePoint" />
            <mxPoint x="305" y="300" as="targetPoint" />
          </mxGeometry>
        </mxCell>
        <mxCell id="j9iMEMy-VblLFCHFO0Tf-5" value="Заявки на запись" style="edgeLabel;html=1;align=center;verticalAlign=middle;resizable=0;points=[];" vertex="1" connectable="0" parent="j9iMEMy-VblLFCHFO0Tf-4">
          <mxGeometry x="-0.0044" y="-4" relative="1" as="geometry">
            <mxPoint y="-19" as="offset" />
          </mxGeometry>
        </mxCell>
        <mxCell id="j9iMEMy-VblLFCHFO0Tf-6" value="" style="endArrow=classic;html=1;rounded=0;entryX=0;entryY=0.75;entryDx=0;entryDy=0;" edge="1" parent="1">
          <mxGeometry width="50" height="50" relative="1" as="geometry">
            <mxPoint x="80" y="335" as="sourcePoint" />
            <mxPoint x="305" y="334.5" as="targetPoint" />
          </mxGeometry>
        </mxCell>
        <mxCell id="j9iMEMy-VblLFCHFO0Tf-7" value="Учебные материалы" style="edgeLabel;html=1;align=center;verticalAlign=middle;resizable=0;points=[];" vertex="1" connectable="0" parent="j9iMEMy-VblLFCHFO0Tf-6">
          <mxGeometry x="0.1822" y="1" relative="1" as="geometry">
            <mxPoint x="-13" y="-17" as="offset" />
          </mxGeometry>
        </mxCell>
        <mxCell id="j9iMEMy-VblLFCHFO0Tf-8" value="" style="endArrow=classic;html=1;rounded=0;entryX=0;entryY=0.75;entryDx=0;entryDy=0;" edge="1" parent="1" target="j9iMEMy-VblLFCHFO0Tf-1">
          <mxGeometry width="50" height="50" relative="1" as="geometry">
            <mxPoint x="80" y="378" as="sourcePoint" />
            <mxPoint x="210" y="360" as="targetPoint" />
          </mxGeometry>
        </mxCell>
        <mxCell id="j9iMEMy-VblLFCHFO0Tf-9" value="Данные активности" style="edgeLabel;html=1;align=center;verticalAlign=middle;resizable=0;points=[];" vertex="1" connectable="0" parent="j9iMEMy-VblLFCHFO0Tf-8">
          <mxGeometry x="0.3333" y="-3" relative="1" as="geometry">
            <mxPoint x="-30" y="-21" as="offset" />
          </mxGeometry>
        </mxCell>
        <mxCell id="j9iMEMy-VblLFCHFO0Tf-10" value="" style="endArrow=classic;html=1;rounded=0;exitX=1;exitY=0.141;exitDx=0;exitDy=0;exitPerimeter=0;" edge="1" parent="1" source="j9iMEMy-VblLFCHFO0Tf-1">
          <mxGeometry width="50" height="50" relative="1" as="geometry">
            <mxPoint x="600" y="280" as="sourcePoint" />
            <mxPoint x="740" y="274" as="targetPoint" />
          </mxGeometry>
        </mxCell>
        <mxCell id="j9iMEMy-VblLFCHFO0Tf-11" value="Токен авторизации" style="edgeLabel;html=1;align=center;verticalAlign=middle;resizable=0;points=[];" vertex="1" connectable="0" parent="j9iMEMy-VblLFCHFO0Tf-10">
          <mxGeometry x="0.0359" y="1" relative="1" as="geometry">
            <mxPoint x="-6" y="-13" as="offset" />
          </mxGeometry>
        </mxCell>
        <mxCell id="j9iMEMy-VblLFCHFO0Tf-13" value="" style="endArrow=classic;html=1;rounded=0;exitX=1;exitY=0.25;exitDx=0;exitDy=0;" edge="1" parent="1">
          <mxGeometry width="50" height="50" relative="1" as="geometry">
            <mxPoint x="545" y="300" as="sourcePoint" />
            <mxPoint x="740" y="300.5" as="targetPoint" />
          </mxGeometry>
        </mxCell>
        <mxCell id="j9iMEMy-VblLFCHFO0Tf-14" value="Статус записи" style="edgeLabel;html=1;align=center;verticalAlign=middle;resizable=0;points=[];" vertex="1" connectable="0" parent="j9iMEMy-VblLFCHFO0Tf-13">
          <mxGeometry x="0.2" y="-1" relative="1" as="geometry">
            <mxPoint x="-22" y="-14" as="offset" />
          </mxGeometry>
        </mxCell>
        <mxCell id="j9iMEMy-VblLFCHFO0Tf-15" value="" style="endArrow=classic;html=1;rounded=0;exitX=1;exitY=0.5;exitDx=0;exitDy=0;" edge="1" parent="1" source="j9iMEMy-VblLFCHFO0Tf-1">
          <mxGeometry width="50" height="50" relative="1" as="geometry">
            <mxPoint x="640" y="390" as="sourcePoint" />
            <mxPoint x="740" y="335" as="targetPoint" />
          </mxGeometry>
        </mxCell>
        <mxCell id="j9iMEMy-VblLFCHFO0Tf-16" value="Доступные учебные материалы" style="edgeLabel;html=1;align=center;verticalAlign=middle;resizable=0;points=[];" vertex="1" connectable="0" parent="j9iMEMy-VblLFCHFO0Tf-15">
          <mxGeometry x="-0.0051" y="2" relative="1" as="geometry">
            <mxPoint x="-2" y="-13" as="offset" />
          </mxGeometry>
        </mxCell>
        <mxCell id="j9iMEMy-VblLFCHFO0Tf-17" value="" style="endArrow=classic;html=1;rounded=0;exitX=1;exitY=0.75;exitDx=0;exitDy=0;" edge="1" parent="1">
          <mxGeometry width="50" height="50" relative="1" as="geometry">
            <mxPoint x="545" y="360" as="sourcePoint" />
            <mxPoint x="740" y="360.5" as="targetPoint" />
          </mxGeometry>
        </mxCell>
        <mxCell id="j9iMEMy-VblLFCHFO0Tf-18" value="Аналитика" style="edgeLabel;html=1;align=center;verticalAlign=middle;resizable=0;points=[];" vertex="1" connectable="0" parent="j9iMEMy-VblLFCHFO0Tf-17">
          <mxGeometry x="0.2923" y="1" relative="1" as="geometry">
            <mxPoint x="-31" y="-9" as="offset" />
          </mxGeometry>
        </mxCell>
        <mxCell id="j9iMEMy-VblLFCHFO0Tf-19" value="" style="endArrow=classic;html=1;rounded=0;exitX=1.004;exitY=0.859;exitDx=0;exitDy=0;exitPerimeter=0;" edge="1" parent="1">
          <mxGeometry width="50" height="50" relative="1" as="geometry">
            <mxPoint x="545" y="380.03" as="sourcePoint" />
            <mxPoint x="739.04" y="380" as="targetPoint" />
          </mxGeometry>
        </mxCell>
        <mxCell id="j9iMEMy-VblLFCHFO0Tf-20" value="Уведомления" style="edgeLabel;html=1;align=center;verticalAlign=middle;resizable=0;points=[];" vertex="1" connectable="0" parent="j9iMEMy-VblLFCHFO0Tf-19">
          <mxGeometry x="0.1754" y="-2" relative="1" as="geometry">
            <mxPoint x="-20" y="-12" as="offset" />
          </mxGeometry>
        </mxCell>
        <mxCell id="j9iMEMy-VblLFCHFO0Tf-21" value="" style="endArrow=classic;html=1;rounded=0;exitX=1.013;exitY=0.882;exitDx=0;exitDy=0;exitPerimeter=0;" edge="1" parent="1" source="j9iMEMy-VblLFCHFO0Tf-1">
          <mxGeometry width="50" height="50" relative="1" as="geometry">
            <mxPoint x="600" y="460" as="sourcePoint" />
            <mxPoint x="740" y="400" as="targetPoint" />
          </mxGeometry>
        </mxCell>
        <mxCell id="j9iMEMy-VblLFCHFO0Tf-22" value="Результаты тестов" style="edgeLabel;html=1;align=center;verticalAlign=middle;resizable=0;points=[];" vertex="1" connectable="0" parent="j9iMEMy-VblLFCHFO0Tf-21">
          <mxGeometry x="0.0828" y="1" relative="1" as="geometry">
            <mxPoint x="-12" y="-9" as="offset" />
          </mxGeometry>
        </mxCell>
        <mxCell id="j9iMEMy-VblLFCHFO0Tf-25" value="" style="endArrow=classic;html=1;rounded=0;entryX=0.5;entryY=1;entryDx=0;entryDy=0;" edge="1" parent="1" target="j9iMEMy-VblLFCHFO0Tf-1">
          <mxGeometry width="50" height="50" relative="1" as="geometry">
            <mxPoint x="425" y="530" as="sourcePoint" />
            <mxPoint x="470" y="480" as="targetPoint" />
          </mxGeometry>
        </mxCell>
        <mxCell id="j9iMEMy-VblLFCHFO0Tf-26" value="Администратор" style="edgeLabel;html=1;align=center;verticalAlign=middle;resizable=0;points=[];" vertex="1" connectable="0" parent="j9iMEMy-VblLFCHFO0Tf-25">
          <mxGeometry x="-0.1455" y="2" relative="1" as="geometry">
            <mxPoint x="-13" y="-3" as="offset" />
          </mxGeometry>
        </mxCell>
        <mxCell id="j9iMEMy-VblLFCHFO0Tf-27" value="" style="endArrow=classic;html=1;rounded=0;entryX=0.75;entryY=1;entryDx=0;entryDy=0;" edge="1" parent="1" target="j9iMEMy-VblLFCHFO0Tf-1">
          <mxGeometry width="50" height="50" relative="1" as="geometry">
            <mxPoint x="485" y="530" as="sourcePoint" />
            <mxPoint x="560" y="470" as="targetPoint" />
          </mxGeometry>
        </mxCell>
        <mxCell id="j9iMEMy-VblLFCHFO0Tf-28" value="Преподаватель" style="edgeLabel;html=1;align=center;verticalAlign=middle;resizable=0;points=[];" vertex="1" connectable="0" parent="j9iMEMy-VblLFCHFO0Tf-27">
          <mxGeometry x="-0.0182" y="-4" relative="1" as="geometry">
            <mxPoint x="41" y="4" as="offset" />
          </mxGeometry>
        </mxCell>
        <mxCell id="j9iMEMy-VblLFCHFO0Tf-29" value="" style="endArrow=classic;html=1;rounded=0;entryX=0.75;entryY=0;entryDx=0;entryDy=0;" edge="1" parent="1" target="j9iMEMy-VblLFCHFO0Tf-1">
          <mxGeometry width="50" height="50" relative="1" as="geometry">
            <mxPoint x="485" y="160" as="sourcePoint" />
            <mxPoint x="480" y="100" as="targetPoint" />
          </mxGeometry>
        </mxCell>
        <mxCell id="j9iMEMy-VblLFCHFO0Tf-30" value="Законодательство РФ" style="edgeLabel;html=1;align=center;verticalAlign=middle;resizable=0;points=[];" vertex="1" connectable="0" parent="j9iMEMy-VblLFCHFO0Tf-29">
          <mxGeometry x="-0.2667" y="1" relative="1" as="geometry">
            <mxPoint x="59" y="17" as="offset" />
          </mxGeometry>
        </mxCell>
        <mxCell id="j9iMEMy-VblLFCHFO0Tf-31" value="" style="endArrow=classic;html=1;rounded=0;entryX=0.25;entryY=0;entryDx=0;entryDy=0;" edge="1" parent="1" target="j9iMEMy-VblLFCHFO0Tf-1">
          <mxGeometry width="50" height="50" relative="1" as="geometry">
            <mxPoint x="365" y="160" as="sourcePoint" />
            <mxPoint x="380" y="150" as="targetPoint" />
          </mxGeometry>
        </mxCell>
        <mxCell id="j9iMEMy-VblLFCHFO0Tf-32" value="Обр. лицензия" style="edgeLabel;html=1;align=center;verticalAlign=middle;resizable=0;points=[];" vertex="1" connectable="0" parent="j9iMEMy-VblLFCHFO0Tf-31">
          <mxGeometry x="-0.2222" y="1" relative="1" as="geometry">
            <mxPoint x="-46" y="15" as="offset" />
          </mxGeometry>
        </mxCell>
      </root>
    </mxGraphModel>
  </diagram>
</mxfile>
